<svg preserveAspectRatio="none" width="100%" height="100%" overflow="visible" style="display: block;" viewBox="0 0 32 32" fill="none" xmlns="http://www.w3.org/2000/svg">
<g id="facebook circle">
<path id="Rectangle 3167" d="M32 16C32 7.16344 24.8366 0 16 0C7.16344 0 0 7.16344 0 16C0 24.8366 7.16344 32 16 32C24.8366 32 32 24.8366 32 16Z" fill="var(--fill-0, #242424)"/>
<g id="Google" clip-path="url(#clip0_0_5)">
<path id="Vector" d="M24.1169 16.1498C24.1169 15.4943 24.0638 15.016 23.9487 14.5199H16.4683V17.4786H20.8591C20.7706 18.2138 20.2926 19.3211 19.2303 20.0652L19.2154 20.1643L21.5805 21.9977L21.7444 22.0141C23.2493 20.6233 24.1169 18.577 24.1169 16.1498Z" fill="var(--fill-0, white)"/>
<path id="Vector_2" d="M16.4683 23.9452C18.6194 23.9452 20.4253 23.2365 21.7444 22.0141L19.2303 20.0652C18.5575 20.5347 17.6545 20.8624 16.4683 20.8624C14.3614 20.8624 12.5732 19.4717 11.9357 17.5495L11.8423 17.5574L9.38296 19.462L9.35079 19.5514C10.661 22.1558 13.3522 23.9452 16.4683 23.9452Z" fill="var(--fill-0, white)"/>
<path id="Vector_3" d="M11.9357 17.5495C11.7675 17.0534 11.6702 16.5219 11.6702 15.9727C11.6702 15.4234 11.7675 14.8919 11.9269 14.3959L11.9224 14.2902L9.43227 12.3551L9.35079 12.3939C8.81081 13.4746 8.50097 14.6882 8.50097 15.9727C8.50097 17.2571 8.81081 18.4707 9.35079 19.5514L11.9357 17.5495Z" fill="var(--fill-0, white)"/>
<path id="Vector_4" d="M16.4683 11.0828C17.9643 11.0828 18.9735 11.7295 19.549 12.2699L21.7975 10.073C20.4165 8.78856 18.6194 8.00016 16.4683 8.00016C13.3522 8.00016 10.661 9.78954 9.35079 12.3939L11.9269 14.3959C12.5732 12.4736 14.3614 11.0828 16.4683 11.0828Z" fill="var(--fill-0, white)"/>
</g>
</g>
<defs>
<clipPath id="clip0_0_5">
<rect width="15.625" height="16" fill="white" transform="translate(8.50016 8.00016)"/>
</clipPath>
</defs>
</svg>
