<svg preserveAspectRatio="none" width="100%" height="100%" overflow="visible" style="display: block;" viewBox="0 0 32 32" fill="none" xmlns="http://www.w3.org/2000/svg">
<g id="facebook circle">
<path id="Rectangle 3167" d="M32 16C32 7.16344 24.8366 0 16 0C7.16344 0 0 7.16344 0 16C0 24.8366 7.16344 32 16 32C24.8366 32 32 24.8366 32 16Z" fill="var(--fill-0, #242424)"/>
<path id="Vector" d="M17.3418 24.0001V16.7011H19.9953L20.3932 13.8565H17.3418V12.0404C17.3418 11.2168 17.5896 10.6556 18.8687 10.6556H20.5V8.11213C19.7104 8.035 18.9168 7.99763 18.1228 8.00021C15.7706 8.00021 14.1603 9.32578 14.1603 11.7603V13.8565H11.5V16.7011H14.1603V24.0001H17.3418Z" fill="var(--fill-0, #FDFDFD)"/>
</g>
</svg>
