<svg width="20" height="22" viewBox="0 0 20 22" fill="none" xmlns="http://www.w3.org/2000/svg">
<path fill-rule="evenodd" clip-rule="evenodd" d="M13.25 5C13.25 5.41 13.59 5.75 14 5.75C14.41 5.75 14.75 5.41 14.75 5V3.83087C15.9724 3.93384 16.7679 4.16789 17.3 4.69995C17.9651 5.3651 18.1646 6.44206 18.2244 8.25H1.77561C1.83542 6.44206 2.03486 5.3651 2.70001 4.69995C3.23207 4.16789 4.02761 3.93384 5.25 3.83087V5C5.25 5.41 5.59 5.75 6 5.75C6.41 5.75 6.75 5.41 6.75 5V3.76273C7.40827 3.75 8.1539 3.75 8.9995 3.75H11C11.8456 3.75 12.5917 3.75 13.25 3.76273V5ZM18.36 3.64001C19.4772 4.75719 19.6964 6.26193 19.7395 8.87591C19.7464 8.91634 19.75 8.9578 19.75 9C19.75 9.0349 19.7475 9.0693 19.7428 9.1031C19.75 9.6805 19.75 10.3104 19.75 11V13C19.75 16.98 19.75 18.97 18.36 20.36C16.97 21.75 14.98 21.75 11 21.75H9C5.03 21.75 3.03001 21.75 1.64001 20.36C0.25001 18.97 0.25 16.98 0.25 13V11C0.25 10.3104 0.25 9.6805 0.25723 9.1031C0.25247 9.0693 0.25 9.0349 0.25 9C0.25 8.9578 0.2536 8.91634 0.26051 8.87591C0.30356 6.26193 0.52284 4.75719 1.64001 3.64001C2.50206 2.77797 3.59486 2.45054 5.25 2.32617V1C5.25 0.59 5.59 0.25 6 0.25C6.41 0.25 6.75 0.59 6.75 1V2.26274C7.42134 2.25 8.1671 2.25 9 2.25H11C11.8324 2.25 12.5783 2.25 13.25 2.26282V1C13.25 0.59 13.59 0.25 14 0.25C14.41 0.25 14.75 0.59 14.75 1V2.3265C16.4032 2.45112 17.4987 2.77873 18.36 3.64001ZM1.75184 9.75H18.2482C18.25 10.1404 18.25 10.5565 18.25 11V13C18.25 16.56 18.25 18.35 17.3 19.3C16.35 20.25 14.5602 20.25 11.0006 20.25H9C5.44041 20.25 3.64996 20.25 2.70001 19.3C1.75001 18.35 1.75 16.56 1.75 13V11C1.75 10.5565 1.75 10.1404 1.75184 9.75ZM8.9998 17C8.9998 17.55 9.4498 18 9.9998 18C10.5498 18 10.9998 17.55 10.9998 17C10.9998 16.45 10.5498 16 9.9998 16C9.4398 16 8.9998 16.45 8.9998 17ZM5.00977 17C5.00977 17.55 5.45977 18 6.00977 18C6.55977 18 7.00977 17.55 7.00977 17C7.00977 16.45 6.55977 16 6.00977 16C5.44977 16 5.00977 16.45 5.00977 17ZM12.9998 13C12.9998 13.55 13.4498 14 13.9998 14C14.5498 14 14.9998 13.55 14.9998 13C14.9998 12.45 14.5498 12 13.9998 12C13.4398 12 12.9998 12.45 12.9998 13ZM8.9998 13C8.9998 13.55 9.4498 14 9.9998 14C10.5498 14 10.9998 13.55 10.9998 13C10.9998 12.45 10.5498 12 9.9998 12C9.4398 12 8.9998 12.45 8.9998 13ZM5.00977 13C5.00977 13.55 5.45977 14 6.00977 14C6.55977 14 7.00977 13.55 7.00977 13C7.00977 12.45 6.55977 12 6.00977 12C5.44977 12 5.00977 12.45 5.00977 13Z" fill="#7E57C2"/>
</svg>
